<?xml version="1.0" encoding="UTF-8" standalone="no"?><svg xmlns="http://www.w3.org/2000/svg" xmlns:xlink="http://www.w3.org/1999/xlink" contentScriptType="application/ecmascript" contentStyleType="text/css" height="430px" preserveAspectRatio="none" style="width:768px;height:430px;background:#FFFFFF;" version="1.1" viewBox="0 0 768 430" width="768px" zoomAndPan="magnify"><defs><filter height="300%" id="fwzatl9cit43l" width="300%" x="-1" y="-1"><feGaussianBlur result="blurOut" stdDeviation="2.0"/><feColorMatrix in="blurOut" result="blurOut2" type="matrix" values="0 0 0 0 0 0 0 0 0 0 0 0 0 0 0 0 0 0 .4 0"/><feOffset dx="4.0" dy="4.0" in="blurOut2" result="blurOut3"/><feBlend in="SourceGraphic" in2="blurOut3" mode="normal"/></filter></defs><g><rect fill="#FEFECE" filter="url(#fwzatl9cit43l)" height="33.9688" style="stroke:#A80036;stroke-width:1.5;" width="55" x="332.24" y="7"/><text fill="#000000" font-family="sans-serif" font-size="12" lengthAdjust="spacing" textLength="41" x="339.24" y="20.1387">main.c</text><line style="stroke:#A80036;stroke-width:1.5;" x1="333.24" x2="386.24" y1="24.9688" y2="24.9688"/><rect fill="#FEFECE" filter="url(#fwzatl9cit43l)" height="33.9688" style="stroke:#A80036;stroke-width:1.5;" width="68" x="96.74" y="101"/><text fill="#000000" font-family="sans-serif" font-size="12" lengthAdjust="spacing" textLength="54" x="103.74" y="114.1387">failures.c</text><line style="stroke:#A80036;stroke-width:1.5;" x1="97.74" x2="163.74" y1="118.9688" y2="118.9688"/><rect fill="#FEFECE" filter="url(#fwzatl9cit43l)" height="33.9688" style="stroke:#A80036;stroke-width:1.5;" width="35" x="413.24" y="101"/><text fill="#000000" font-family="sans-serif" font-size="12" lengthAdjust="spacing" textLength="21" x="420.24" y="114.1387">ic.c</text><line style="stroke:#A80036;stroke-width:1.5;" x1="414.24" x2="447.24" y1="118.9688" y2="118.9688"/><rect fill="#FEFECE" filter="url(#fwzatl9cit43l)" height="33.9688" style="stroke:#A80036;stroke-width:1.5;" width="45" x="483.24" y="101"/><text fill="#000000" font-family="sans-serif" font-size="12" lengthAdjust="spacing" textLength="31" x="490.24" y="114.1387">osc.c</text><line style="stroke:#A80036;stroke-width:1.5;" x1="484.24" x2="527.24" y1="118.9688" y2="118.9688"/><rect fill="#FEFECE" filter="url(#fwzatl9cit43l)" height="33.9688" style="stroke:#A80036;stroke-width:1.5;" width="93" x="563.24" y="101"/><text fill="#000000" font-family="sans-serif" font-size="12" lengthAdjust="spacing" textLength="79" x="570.24" y="114.1387">port_config.c</text><line style="stroke:#A80036;stroke-width:1.5;" x1="564.24" x2="655.24" y1="118.9688" y2="118.9688"/><rect fill="#FEFECE" filter="url(#fwzatl9cit43l)" height="33.9688" style="stroke:#A80036;stroke-width:1.5;" width="120" x="115.74" y="195"/><text fill="#000000" font-family="sans-serif" font-size="12" lengthAdjust="spacing" textLength="106" x="122.74" y="208.1387">synchronization.c</text><line style="stroke:#A80036;stroke-width:1.5;" x1="116.74" x2="234.74" y1="212.9688" y2="212.9688"/><rect fill="#FEFECE" filter="url(#fwzatl9cit43l)" height="33.9688" style="stroke:#A80036;stroke-width:1.5;" width="154" x="114.74" y="383"/><text fill="#000000" font-family="sans-serif" font-size="12" lengthAdjust="spacing" textLength="140" x="121.74" y="396.1387">system_configuration.c</text><line style="stroke:#A80036;stroke-width:1.5;" x1="115.74" x2="267.74" y1="400.9688" y2="400.9688"/><rect fill="#FEFECE" filter="url(#fwzatl9cit43l)" height="33.9688" style="stroke:#A80036;stroke-width:1.5;" width="57" x="9.24" y="383"/><text fill="#000000" font-family="sans-serif" font-size="12" lengthAdjust="spacing" textLength="43" x="16.24" y="396.1387">timer.c</text><line style="stroke:#A80036;stroke-width:1.5;" x1="10.24" x2="65.24" y1="400.9688" y2="400.9688"/><rect fill="#FEFECE" filter="url(#fwzatl9cit43l)" height="33.9688" style="stroke:#A80036;stroke-width:1.5;" width="50" x="133.74" y="289"/><text fill="#000000" font-family="sans-serif" font-size="12" lengthAdjust="spacing" textLength="36" x="140.74" y="302.1387">uart.c</text><line style="stroke:#A80036;stroke-width:1.5;" x1="134.74" x2="182.74" y1="306.9688" y2="306.9688"/><rect fill="#FEFECE" filter="url(#fwzatl9cit43l)" height="33.9688" style="stroke:#A80036;stroke-width:1.5;" width="63" x="691.24" y="101"/><text fill="#000000" font-family="sans-serif" font-size="12" lengthAdjust="spacing" textLength="49" x="698.24" y="114.1387">config.h</text><line style="stroke:#A80036;stroke-width:1.5;" x1="692.24" x2="753.24" y1="118.9688" y2="118.9688"/><!--MD5=[1ad53ef024caa02451166942e06335e1]
link main.c to config.h--><path codeLine="12" d="M387.65,30.99 C442.71,42.96 569.06,71.29 673.74,101 C677.82,102.16 682.08,103.44 686.3,104.75 " fill="none" id="main.c-to-config.h" style="stroke:#A80036;stroke-width:1.0;"/><polygon fill="#A80036" points="691.22,106.31,683.8339,99.795,686.4501,104.8105,681.4347,107.4268,691.22,106.31" style="stroke:#A80036;stroke-width:1.0;"/><!--MD5=[68e336f156b6198953521f79a10c4a5d]
link main.c to osc.c--><path codeLine="13" d="M385.17,41.03 C411.28,57.47 451.75,82.98 478.5,99.83 " fill="none" id="main.c-to-osc.c" style="stroke:#A80036;stroke-width:1.0;"/><polygon fill="#A80036" points="483,102.67,477.5276,94.4814,478.7729,99.9995,473.2548,101.2448,483,102.67" style="stroke:#A80036;stroke-width:1.0;"/><!--MD5=[6b2a21be506a81d4119ee49a4298496b]
link main.c to timer.c--><path codeLine="14" d="M332.13,28.71 C268.3,37.86 113.36,63.49 78.74,101 C6,179.82 23.58,323.96 33.38,377.89 " fill="none" id="main.c-to-timer.c" style="stroke:#A80036;stroke-width:1.0;"/><polygon fill="#A80036" points="34.3,382.83,36.5913,373.2514,33.388,377.9139,28.7255,374.7106,34.3,382.83" style="stroke:#A80036;stroke-width:1.0;"/><!--MD5=[2572b37844ce77e05115ad43e88fbe6c]
link main.c to ic.c--><path codeLine="15" d="M372.11,41.03 C384.05,56.5 402.17,79.98 415.11,96.74 " fill="none" id="main.c-to-ic.c" style="stroke:#A80036;stroke-width:1.0;"/><polygon fill="#A80036" points="418.28,100.85,415.9431,91.2824,415.2232,96.8933,409.6123,96.1733,418.28,100.85" style="stroke:#A80036;stroke-width:1.0;"/><!--MD5=[3cb5204d7e9c8d846da47b742f9a4bca]
link main.c to uart.c--><path codeLine="16" d="M354.02,41.16 C340.6,77.5 304.41,167.32 253.74,229 C234.97,251.86 208.3,272.45 188,286.41 " fill="none" id="main.c-to-uart.c" style="stroke:#A80036;stroke-width:1.0;"/><polygon fill="#A80036" points="183.77,289.29,193.4624,287.5415,187.906,286.4804,188.967,280.924,183.77,289.29" style="stroke:#A80036;stroke-width:1.0;"/><!--MD5=[9f42ce90b538be556d766e004975ed7b]
link main.c to port_config.c--><path codeLine="17" d="M387.45,35.2 C429.32,50.61 509.32,80.04 561.05,99.08 " fill="none" id="main.c-to-port_config.c" style="stroke:#A80036;stroke-width:1.0;"/><polygon fill="#A80036" points="565.97,100.89,558.9039,94.0293,561.2773,99.1641,556.1425,101.5376,565.97,100.89" style="stroke:#A80036;stroke-width:1.0;"/><!--MD5=[7f27b9aa1e6529d9012108778a3b19ac]
link main.c to system_configuration.c--><path codeLine="18" d="M357.9,41.01 C355.09,62.74 348.86,102.58 337.74,135 C304.3,232.47 236.03,336.05 206.21,378.78 " fill="none" id="main.c-to-system_configuration.c" style="stroke:#A80036;stroke-width:1.0;"/><polygon fill="#A80036" points="203.28,382.96,211.7074,377.863,206.1387,378.8578,205.1439,373.2891,203.28,382.96" style="stroke:#A80036;stroke-width:1.0;"/><!--MD5=[78ee5d6c58f39f3128a1dc92cac02844]
link main.c to synchronization.c--><path codeLine="19" d="M336.13,41.08 C315.66,55.57 285.79,78.06 262.74,101 C233.99,129.62 205.81,167.59 189.63,190.61 " fill="none" id="main.c-to-synchronization.c" style="stroke:#A80036;stroke-width:1.0;"/><polygon fill="#A80036" points="186.76,194.73,195.1993,189.6527,189.6283,190.6345,188.6465,185.0635,186.76,194.73" style="stroke:#A80036;stroke-width:1.0;"/><!--MD5=[4f51781b9a012daa109c71ba3064b5e3]
link main.c to failures.c--><path codeLine="20" d="M332.12,36.1 C291.52,52.41 215.57,82.92 169.44,101.45 " fill="none" id="main.c-to-failures.c" style="stroke:#A80036;stroke-width:1.0;"/><polygon fill="#A80036" points="164.79,103.32,174.6319,103.6914,169.4324,101.463,171.6607,96.2636,164.79,103.32" style="stroke:#A80036;stroke-width:1.0;"/><!--MD5=[61f59bbadd10eb663f3ade7b39fa34df]
link failures.c to timer.c--><path codeLine="22" d="M119.8,135.25 C110.16,150.2 96.35,173.3 87.74,195 C62.3,259.13 47.15,339.89 40.98,377.68 " fill="none" id="failures.c-to-timer.c" style="stroke:#A80036;stroke-width:1.0;"/><polygon fill="#A80036" points="40.14,382.93,45.5033,374.6696,40.9249,377.992,37.6025,373.4136,40.14,382.93" style="stroke:#A80036;stroke-width:1.0;"/><!--MD5=[6db625231007517973fcdbaae874ad41]
link failures.c to synchronization.c--><path codeLine="23" d="M128.63,135.03 C132.73,150.37 143.78,173.58 154.77,190.31 " fill="none" id="failures.c-to-synchronization.c" style="stroke:#A80036;stroke-width:1.0;"/><polygon fill="#A80036" points="157.86,194.85,156.0959,185.1604,155.0438,190.7186,149.4856,189.6664,157.86,194.85" style="stroke:#A80036;stroke-width:1.0;"/><!--MD5=[71e2f20834a8e5c11bd7d9877ef4e3b5]
link synchronization.c to failures.c--><path codeLine="27" d="M178.4,194.85 C174.47,179.47 163.41,156.24 152.25,139.55 " fill="none" id="synchronization.c-to-failures.c" style="stroke:#A80036;stroke-width:1.0;"/><polygon fill="#A80036" points="149.11,135.03,150.9739,144.7009,151.9687,139.1322,157.5374,140.127,149.11,135.03" style="stroke:#A80036;stroke-width:1.0;"/><!--MD5=[e31a8aece193b916460f143f0a0f40a2]
link synchronization.c to timer.c--><path codeLine="25" d="M162.62,229.12 C150.3,244.38 131.45,268.01 115.74,289 C92.72,319.75 67.17,356.26 51.79,378.53 " fill="none" id="synchronization.c-to-timer.c" style="stroke:#A80036;stroke-width:1.0;"/><polygon fill="#A80036" points="48.85,382.78,57.257,377.6495,51.6923,378.6665,50.6754,373.1018,48.85,382.78" style="stroke:#A80036;stroke-width:1.0;"/><!--MD5=[ea3dc443d207890e4eccf1b2570a5897]
link synchronization.c to uart.c--><path codeLine="26" d="M172.78,229.03 C169.97,244.23 165.73,267.19 162.64,283.88 " fill="none" id="synchronization.c-to-uart.c" style="stroke:#A80036;stroke-width:1.0;"/><polygon fill="#A80036" points="161.72,288.85,167.2987,280.7335,162.6345,283.9343,159.4337,279.2702,161.72,288.85" style="stroke:#A80036;stroke-width:1.0;"/><!--MD5=[d7acc8ed4662e55bb2666ef4b314ae86]
link system_configuration.c to synchronization.c--><path codeLine="29" d="M195.76,382.87 C200.55,361.35 207.25,322.1 201.74,289 C198.55,269.84 191.14,249.04 185.04,234.05 " fill="none" id="system_configuration.c-to-synchronization.c" style="stroke:#A80036;stroke-width:1.0;"/><polygon fill="#A80036" points="183.03,229.2,182.7841,239.0458,184.946,233.8183,190.1734,235.9802,183.03,229.2" style="stroke:#A80036;stroke-width:1.0;"/><!--MD5=[21e216edc282baf7296e63df6bb67690]
link system_configuration.c to uart.c--><path codeLine="30" d="M196.51,382.85 C194.58,367.47 186.55,344.24 177.57,327.55 " fill="none" id="system_configuration.c-to-uart.c" style="stroke:#A80036;stroke-width:1.0;"/><polygon fill="#A80036" points="175.02,323.03,175.9567,332.8342,177.4761,327.3852,182.9251,328.9045,175.02,323.03" style="stroke:#A80036;stroke-width:1.0;"/><!--MD5=[37129f33934dff61b0545fe02f55ff49]
link uart.c to system_configuration.c--><path codeLine="32" d="M154.54,323.03 C156.64,338.37 164.66,361.58 173.47,378.31 " fill="none" id="uart.c-to-system_configuration.c" style="stroke:#A80036;stroke-width:1.0;"/><polygon fill="#A80036" points="175.97,382.85,175.1339,373.0367,173.5588,378.4698,168.1256,376.8947,175.97,382.85" style="stroke:#A80036;stroke-width:1.0;"/><!--MD5=[db21af6457431d35ec69a20496b5e2c6]
link uart.c to failures.c--><path codeLine="33" d="M140.65,288.95 C126.19,274.82 107.01,252.82 98.74,229 C88.08,198.3 104.06,161.98 117.02,139.72 " fill="none" id="uart.c-to-failures.c" style="stroke:#A80036;stroke-width:1.0;"/><polygon fill="#A80036" points="119.73,135.19,111.6835,140.8692,117.1681,139.4838,118.5535,144.9683,119.73,135.19" style="stroke:#A80036;stroke-width:1.0;"/><!--MD5=[7d313d19f4077d5dcf8824f8ff04eedb]
link uart.c to timer.c--><path codeLine="34" d="M137.66,323.03 C116.88,338.82 85.11,362.98 62.99,379.8 " fill="none" id="uart.c-to-timer.c" style="stroke:#A80036;stroke-width:1.0;"/><polygon fill="#A80036" points="58.98,382.85,68.566,380.5898,62.9611,379.8249,63.7259,374.22,58.98,382.85" style="stroke:#A80036;stroke-width:1.0;"/><!--MD5=[ad72491e9037a41525693ee34cf3ad0a]
@startuml
object main.c
object failures.c
object ic.c
object osc.c
object port_config.c
object synchronization.c
object system_configuration.c
object timer.c
object uart.c
object config.h

main.c - -> config.h
main.c - -> osc.c
main.c - -> timer.c
main.c - -> ic.c
main.c - -> uart.c
main.c - -> port_config.c
main.c - -> system_configuration.c
main.c - -> synchronization.c
main.c - -> failures.c

failures.c - -> timer.c
failures.c - -> synchronization.c

synchronization.c - -> timer.c
synchronization.c - -> uart.c
synchronization.c - -> failures.c

system_configuration.c - -> synchronization.c
system_configuration.c - -> uart.c

uart.c - -> system_configuration.c
uart.c - -> failures.c
uart.c - -> timer.c
@enduml

PlantUML version 1.2022.1(Tue Feb 01 19:19:58 CET 2022)
(GPL source distribution)
Java Runtime: OpenJDK Runtime Environment
JVM: OpenJDK 64-Bit Server VM
Default Encoding: UTF-8
Language: fr
Country: FR
--></g></svg>