<?xml version="1.0" encoding="UTF-8" standalone="no"?><svg xmlns="http://www.w3.org/2000/svg" xmlns:xlink="http://www.w3.org/1999/xlink" contentScriptType="application/ecmascript" contentStyleType="text/css" height="148px" preserveAspectRatio="none" style="width:988px;height:148px;background:#FFFFFF;" version="1.1" viewBox="0 0 988 148" width="988px" zoomAndPan="magnify"><defs><filter height="300%" id="fqk4f8o776egl" width="300%" x="-1" y="-1"><feGaussianBlur result="blurOut" stdDeviation="2.0"/><feColorMatrix in="blurOut" result="blurOut2" type="matrix" values="0 0 0 0 0 0 0 0 0 0 0 0 0 0 0 0 0 0 .4 0"/><feOffset dx="4.0" dy="4.0" in="blurOut2" result="blurOut3"/><feBlend in="SourceGraphic" in2="blurOut3" mode="normal"/></filter></defs><g><rect fill="#FEFECE" filter="url(#fqk4f8o776egl)" height="33.9688" style="stroke:#A80036;stroke-width:1.5;" width="55" x="421.5" y="7"/><text fill="#000000" font-family="sans-serif" font-size="12" lengthAdjust="spacing" textLength="41" x="428.5" y="20.1387">main.c</text><line style="stroke:#A80036;stroke-width:1.5;" x1="422.5" x2="475.5" y1="24.9688" y2="24.9688"/><rect fill="#FEFECE" filter="url(#fqk4f8o776egl)" height="33.9688" style="stroke:#A80036;stroke-width:1.5;" width="68" x="7" y="101"/><text fill="#000000" font-family="sans-serif" font-size="12" lengthAdjust="spacing" textLength="54" x="14" y="114.1387">failures.c</text><line style="stroke:#A80036;stroke-width:1.5;" x1="8" x2="74" y1="118.9688" y2="118.9688"/><rect fill="#FEFECE" filter="url(#fqk4f8o776egl)" height="33.9688" style="stroke:#A80036;stroke-width:1.5;" width="35" x="110.5" y="101"/><text fill="#000000" font-family="sans-serif" font-size="12" lengthAdjust="spacing" textLength="21" x="117.5" y="114.1387">ic.c</text><line style="stroke:#A80036;stroke-width:1.5;" x1="111.5" x2="144.5" y1="118.9688" y2="118.9688"/><rect fill="#FEFECE" filter="url(#fqk4f8o776egl)" height="33.9688" style="stroke:#A80036;stroke-width:1.5;" width="45" x="180.5" y="101"/><text fill="#000000" font-family="sans-serif" font-size="12" lengthAdjust="spacing" textLength="31" x="187.5" y="114.1387">osc.c</text><line style="stroke:#A80036;stroke-width:1.5;" x1="181.5" x2="224.5" y1="118.9688" y2="118.9688"/><rect fill="#FEFECE" filter="url(#fqk4f8o776egl)" height="33.9688" style="stroke:#A80036;stroke-width:1.5;" width="93" x="260.5" y="101"/><text fill="#000000" font-family="sans-serif" font-size="12" lengthAdjust="spacing" textLength="79" x="267.5" y="114.1387">port_config.c</text><line style="stroke:#A80036;stroke-width:1.5;" x1="261.5" x2="352.5" y1="118.9688" y2="118.9688"/><rect fill="#FEFECE" filter="url(#fqk4f8o776egl)" height="33.9688" style="stroke:#A80036;stroke-width:1.5;" width="120" x="389" y="101"/><text fill="#000000" font-family="sans-serif" font-size="12" lengthAdjust="spacing" textLength="106" x="396" y="114.1387">synchronization.c</text><line style="stroke:#A80036;stroke-width:1.5;" x1="390" x2="508" y1="118.9688" y2="118.9688"/><rect fill="#FEFECE" filter="url(#fqk4f8o776egl)" height="33.9688" style="stroke:#A80036;stroke-width:1.5;" width="154" x="544" y="101"/><text fill="#000000" font-family="sans-serif" font-size="12" lengthAdjust="spacing" textLength="140" x="551" y="114.1387">system_configuration.c</text><line style="stroke:#A80036;stroke-width:1.5;" x1="545" x2="697" y1="118.9688" y2="118.9688"/><rect fill="#FEFECE" filter="url(#fqk4f8o776egl)" height="33.9688" style="stroke:#A80036;stroke-width:1.5;" width="57" x="733.5" y="101"/><text fill="#000000" font-family="sans-serif" font-size="12" lengthAdjust="spacing" textLength="43" x="740.5" y="114.1387">timer.c</text><line style="stroke:#A80036;stroke-width:1.5;" x1="734.5" x2="789.5" y1="118.9688" y2="118.9688"/><rect fill="#FEFECE" filter="url(#fqk4f8o776egl)" height="33.9688" style="stroke:#A80036;stroke-width:1.5;" width="50" x="826" y="101"/><text fill="#000000" font-family="sans-serif" font-size="12" lengthAdjust="spacing" textLength="36" x="833" y="114.1387">uart.c</text><line style="stroke:#A80036;stroke-width:1.5;" x1="827" x2="875" y1="118.9688" y2="118.9688"/><rect fill="#FEFECE" filter="url(#fqk4f8o776egl)" height="33.9688" style="stroke:#A80036;stroke-width:1.5;" width="63" x="911.5" y="101"/><text fill="#000000" font-family="sans-serif" font-size="12" lengthAdjust="spacing" textLength="49" x="918.5" y="114.1387">config.h</text><line style="stroke:#A80036;stroke-width:1.5;" x1="912.5" x2="973.5" y1="118.9688" y2="118.9688"/><!--MD5=[1ad53ef024caa02451166942e06335e1]
link main.c to config.h--><path codeLine="12" d="M476.63,28.29 C546.96,36.96 738.22,62.48 894,101 C898.06,102 902.27,103.17 906.44,104.42 " fill="none" id="main.c-to-config.h" style="stroke:#A80036;stroke-width:1.0;"/><polygon fill="#A80036" points="911.3,105.9,903.8553,99.452,906.5168,104.4436,901.5251,107.1051,911.3,105.9" style="stroke:#A80036;stroke-width:1.0;"/><!--MD5=[68e336f156b6198953521f79a10c4a5d]
link main.c to osc.c--><path codeLine="13" d="M421.26,34.97 C381.61,49.27 306.51,76.59 243,101 C238.99,102.54 234.76,104.2 230.61,105.84 " fill="none" id="main.c-to-osc.c" style="stroke:#A80036;stroke-width:1.0;"/><polygon fill="#A80036" points="225.8,107.76,235.6419,108.1314,230.4424,105.903,232.6707,100.7036,225.8,107.76" style="stroke:#A80036;stroke-width:1.0;"/><!--MD5=[6b2a21be506a81d4119ee49a4298496b]
link main.c to timer.c--><path codeLine="14" d="M476.83,32.36 C525.56,45.36 629.37,73.63 716,101 C720.06,102.28 724.3,103.68 728.49,105.09 " fill="none" id="main.c-to-timer.c" style="stroke:#A80036;stroke-width:1.0;"/><polygon fill="#A80036" points="733.38,106.76,726.155,100.0668,728.6481,105.1446,723.5703,107.6378,733.38,106.76" style="stroke:#A80036;stroke-width:1.0;"/><!--MD5=[2572b37844ce77e05115ad43e88fbe6c]
link main.c to ic.c--><path codeLine="15" d="M421.32,30.72 C369.71,41.74 255.61,67.8 163,101 C158.84,102.49 154.5,104.28 150.34,106.11 " fill="none" id="main.c-to-ic.c" style="stroke:#A80036;stroke-width:1.0;"/><polygon fill="#A80036" points="145.56,108.27,155.4087,108.2129,150.1172,106.2128,152.1172,100.9213,145.56,108.27" style="stroke:#A80036;stroke-width:1.0;"/><!--MD5=[3cb5204d7e9c8d846da47b742f9a4bca]
link main.c to uart.c--><path codeLine="16" d="M476.82,29.45 C537.6,39.48 686.55,65.76 808,101 C812.18,102.21 816.53,103.64 820.79,105.13 " fill="none" id="main.c-to-uart.c" style="stroke:#A80036;stroke-width:1.0;"/><polygon fill="#A80036" points="825.74,106.9,818.6123,100.1033,821.0319,105.2165,815.9187,107.6362,825.74,106.9" style="stroke:#A80036;stroke-width:1.0;"/><!--MD5=[9f42ce90b538be556d766e004975ed7b]
link main.c to port_config.c--><path codeLine="17" d="M424.27,41.03 C399.78,56.89 362.29,81.18 336.31,98.01 " fill="none" id="main.c-to-port_config.c" style="stroke:#A80036;stroke-width:1.0;"/><polygon fill="#A80036" points="331.93,100.85,341.6563,99.3012,336.1229,98.1261,337.298,92.5926,331.93,100.85" style="stroke:#A80036;stroke-width:1.0;"/><!--MD5=[7f27b9aa1e6529d9012108778a3b19ac]
link main.c to system_configuration.c--><path codeLine="18" d="M476.63,39.78 C506.41,55.71 553.87,81.09 586.18,98.37 " fill="none" id="main.c-to-system_configuration.c" style="stroke:#A80036;stroke-width:1.0;"/><polygon fill="#A80036" points="590.83,100.86,584.7946,93.077,586.4254,98.4938,581.0086,100.1245,590.83,100.86" style="stroke:#A80036;stroke-width:1.0;"/><!--MD5=[78ee5d6c58f39f3128a1dc92cac02844]
link main.c to synchronization.c--><path codeLine="19" d="M449,41.03 C449,56.1 449,78.79 449,95.45 " fill="none" id="main.c-to-synchronization.c" style="stroke:#A80036;stroke-width:1.0;"/><polygon fill="#A80036" points="449,100.85,453,91.85,449,95.85,445,91.85,449,100.85" style="stroke:#A80036;stroke-width:1.0;"/><!--MD5=[4f51781b9a012daa109c71ba3064b5e3]
link main.c to failures.c--><path codeLine="20" d="M421.11,30.09 C360.84,41.27 214.1,69.51 93,101 C88.79,102.09 84.42,103.31 80.08,104.57 " fill="none" id="main.c-to-failures.c" style="stroke:#A80036;stroke-width:1.0;"/><polygon fill="#A80036" points="75,106.07,84.7646,107.3553,79.795,104.653,82.4974,99.6833,75,106.07" style="stroke:#A80036;stroke-width:1.0;"/><!--MD5=[100774cfafc21bdcd3c22958b9370b50]
@startuml
object main.c
object failures.c
object ic.c
object osc.c
object port_config.c
object synchronization.c
object system_configuration.c
object timer.c
object uart.c
object config.h

main.c - -> config.h
main.c - -> osc.c
main.c - -> timer.c
main.c - -> ic.c
main.c - -> uart.c
main.c - -> port_config.c
main.c - -> system_configuration.c
main.c - -> synchronization.c
main.c - -> failures.c

@enduml

PlantUML version 1.2022.1(Tue Feb 01 19:19:58 CET 2022)
(GPL source distribution)
Java Runtime: OpenJDK Runtime Environment
JVM: OpenJDK 64-Bit Server VM
Default Encoding: UTF-8
Language: fr
Country: FR
--></g></svg>