<?xml version="1.0" encoding="UTF-8" standalone="no"?><svg xmlns="http://www.w3.org/2000/svg" xmlns:xlink="http://www.w3.org/1999/xlink" contentStyleType="text/css" height="148px" preserveAspectRatio="none" style="width:829px;height:148px;background:#FFFFFF;" version="1.1" viewBox="0 0 829 148" width="829px" zoomAndPan="magnify"><defs/><g><g id="elem_main"><rect fill="#F1F1F1" height="37.6094" rx="3.5" ry="3.5" style="stroke:#181818;stroke-width:0.5;" width="44" x="409.5" y="7"/><text fill="#000000" font-family="sans-serif" font-size="14" lengthAdjust="spacing" textLength="30" x="416.5" y="23.5332">main</text><line style="stroke:#181818;stroke-width:0.5;" x1="410.5" x2="452.5" y1="28.6094" y2="28.6094"/></g><g id="elem_exti"><rect fill="#F1F1F1" height="37.6094" rx="3.5" ry="3.5" style="stroke:#181818;stroke-width:0.5;" width="35" x="7" y="105"/><text fill="#000000" font-family="sans-serif" font-size="14" lengthAdjust="spacing" textLength="21" x="14" y="121.5332">exti</text><line style="stroke:#181818;stroke-width:0.5;" x1="8" x2="41" y1="126.6094" y2="126.6094"/></g><g id="elem_failures"><rect fill="#F1F1F1" height="37.6094" rx="3.5" ry="3.5" style="stroke:#181818;stroke-width:0.5;" width="60" x="77.5" y="105"/><text fill="#000000" font-family="sans-serif" font-size="14" lengthAdjust="spacing" textLength="46" x="84.5" y="121.5332">failures</text><line style="stroke:#181818;stroke-width:0.5;" x1="78.5" x2="136.5" y1="126.6094" y2="126.6094"/></g><g id="elem_port_config"><rect fill="#F1F1F1" height="37.6094" rx="3.5" ry="3.5" style="stroke:#181818;stroke-width:0.5;" width="85" x="173" y="105"/><text fill="#000000" font-family="sans-serif" font-size="14" lengthAdjust="spacing" textLength="71" x="180" y="121.5332">port_config</text><line style="stroke:#181818;stroke-width:0.5;" x1="174" x2="257" y1="126.6094" y2="126.6094"/></g><g id="elem_synchronization"><rect fill="#F1F1F1" height="37.6094" rx="3.5" ry="3.5" style="stroke:#181818;stroke-width:0.5;" width="112" x="293.5" y="105"/><text fill="#000000" font-family="sans-serif" font-size="14" lengthAdjust="spacing" textLength="98" x="300.5" y="121.5332">synchronization</text><line style="stroke:#181818;stroke-width:0.5;" x1="294.5" x2="404.5" y1="126.6094" y2="126.6094"/></g><g id="elem_system_configuration"><rect fill="#F1F1F1" height="37.6094" rx="3.5" ry="3.5" style="stroke:#181818;stroke-width:0.5;" width="148" x="440.5" y="105"/><text fill="#000000" font-family="sans-serif" font-size="14" lengthAdjust="spacing" textLength="134" x="447.5" y="121.5332">system_configuration</text><line style="stroke:#181818;stroke-width:0.5;" x1="441.5" x2="587.5" y1="126.6094" y2="126.6094"/></g><g id="elem_Tim5"><rect fill="#F1F1F1" height="37.6094" rx="3.5" ry="3.5" style="stroke:#181818;stroke-width:0.5;" width="45" x="624" y="105"/><text fill="#000000" font-family="sans-serif" font-size="14" lengthAdjust="spacing" textLength="31" x="631" y="121.5332">Tim5</text><line style="stroke:#181818;stroke-width:0.5;" x1="625" x2="668" y1="126.6094" y2="126.6094"/></g><g id="elem_timer"><rect fill="#F1F1F1" height="37.6094" rx="3.5" ry="3.5" style="stroke:#181818;stroke-width:0.5;" width="45" x="704" y="105"/><text fill="#000000" font-family="sans-serif" font-size="14" lengthAdjust="spacing" textLength="31" x="711" y="121.5332">timer</text><line style="stroke:#181818;stroke-width:0.5;" x1="705" x2="748" y1="126.6094" y2="126.6094"/></g><g id="elem_uart"><rect fill="#F1F1F1" height="37.6094" rx="3.5" ry="3.5" style="stroke:#181818;stroke-width:0.5;" width="39" x="784" y="105"/><text fill="#000000" font-family="sans-serif" font-size="14" lengthAdjust="spacing" textLength="25" x="791" y="121.5332">uart</text><line style="stroke:#181818;stroke-width:0.5;" x1="785" x2="822" y1="126.6094" y2="126.6094"/></g><!--MD5=[beb43096b5d06496bbf86adb1ce45878]
link main to failures--><g id="link_main_failures"><path codeLine="12" d="M409.49,32.55 C362.48,44.56 248.94,74.34 155.5,105 C151.22,106.41 146.75,107.96 142.33,109.55 " fill="none" id="main-to-failures" style="stroke:#454645;stroke-width:1.0;"/><polygon fill="#454645" points="137.58,111.28,147.4058,111.9539,142.2773,109.5667,144.6645,104.4382,137.58,111.28" style="stroke:#454645;stroke-width:1.0;"/></g><!--MD5=[322e59138f39ba4e48a690994da41c59]
link main to exti--><g id="link_main_exti"><path codeLine="13" d="M409.13,29.56 C350.42,36.74 187.61,59.56 59.5,105 C55.33,106.48 51.04,108.36 46.95,110.34 " fill="none" id="main-to-exti" style="stroke:#454645;stroke-width:1.0;"/><polygon fill="#454645" points="42.25,112.7,52.0869,112.2151,46.7135,110.4468,48.4819,105.0735,42.25,112.7" style="stroke:#454645;stroke-width:1.0;"/></g><!--MD5=[51fdb1dfef34b3c0255faf3ac608ed1d]
link main to port_config--><g id="link_main_port_config"><path codeLine="14" d="M409.2,36.91 C374.39,52.38 306.44,82.58 261,102.78 " fill="none" id="main-to-port_config" style="stroke:#454645;stroke-width:1.0;"/><polygon fill="#454645" points="256.4,104.82,266.2489,104.8257,260.9702,102.792,263.004,97.5133,256.4,104.82" style="stroke:#454645;stroke-width:1.0;"/></g><!--MD5=[869778d90b74d1e010d5a3bd5d96512a]
link main to synchronization--><g id="link_main_synchronization"><path codeLine="15" d="M416.08,45.06 C402.65,60.78 383.12,83.64 368.69,100.54 " fill="none" id="main-to-synchronization" style="stroke:#454645;stroke-width:1.0;"/><polygon fill="#454645" points="365.13,104.7,374.0149,100.4506,368.3757,100.8967,367.9296,95.2574,365.13,104.7" style="stroke:#454645;stroke-width:1.0;"/></g><!--MD5=[15618b8d2093adcee4cb1de5ad4d1658]
link main to system_configuration--><g id="link_main_system_configuration"><path codeLine="16" d="M447.11,45.06 C460.7,60.78 480.47,83.64 495.08,100.54 " fill="none" id="main-to-system_configuration" style="stroke:#454645;stroke-width:1.0;"/><polygon fill="#454645" points="498.68,104.7,495.8219,95.275,495.4108,100.9168,489.7689,100.5057,498.68,104.7" style="stroke:#454645;stroke-width:1.0;"/></g><!--MD5=[00aa11c6803e7e78b4267a56aeeb9ae2]
link main to timer--><g id="link_main_timer"><path codeLine="17" d="M453.64,32.76 C498.28,44.59 602.01,73.21 686.5,105 C690.6,106.54 694.87,108.3 699.04,110.1 " fill="none" id="main-to-timer" style="stroke:#454645;stroke-width:1.0;"/><polygon fill="#454645" points="703.86,112.22,697.2286,104.9382,699.2822,110.2092,694.0112,112.2628,703.86,112.22" style="stroke:#454645;stroke-width:1.0;"/></g><!--MD5=[3397a29bcb90305f9285a374a4291b4b]
link main to uart--><g id="link_main_uart"><path codeLine="18" d="M453.54,30.37 C507.84,39.05 651.97,64.39 766.5,105 C770.66,106.48 774.97,108.29 779.11,110.19 " fill="none" id="main-to-uart" style="stroke:#454645;stroke-width:1.0;"/><polygon fill="#454645" points="783.88,112.45,777.4557,104.9849,779.3604,110.3114,774.0339,112.2162,783.88,112.45" style="stroke:#454645;stroke-width:1.0;"/></g><!--MD5=[9a562a5b397dede9f4ca764c42730d1a]
link main to Tim5--><g id="link_main_Tim5"><path codeLine="19" d="M453.61,36.83 C486.82,51.59 551.55,80.39 606.5,105 C610.5,106.79 614.72,108.68 618.86,110.54 " fill="none" id="main-to-Tim5" style="stroke:#454645;stroke-width:1.0;"/><polygon fill="#454645" points="623.66,112.71,617.1028,105.3613,619.1028,110.6528,613.8113,112.6529,623.66,112.71" style="stroke:#454645;stroke-width:1.0;"/></g><!--MD5=[38e50271d6d1f163e12b3729ee56b557]
@startuml
!theme toy
skinparam backgroundColor #ffffff

object main
object exti
object failures
object port_config
object synchronization
object system_configuration
object Tim5
object timer
object uart

main - -> failures
main - -> exti
main - -> port_config
main - -> synchronization
main - -> system_configuration
main - -> timer
main - -> uart
main - -> Tim5
@enduml

@startuml
skinparam BackgroundColor DDDDDD
skinparam shadowing false
skinparam RoundCorner 7
skinparam ArrowColor 454645
skinparam FontColor 454645
skinparam SequenceLifeLineBorderColor 454645
skinparam SequenceGroupHeaderFontColor 454645
skinparam SequenceGroupFontColor 454645
skinparam SequenceGroupBorderColor 454645
skinparam SequenceGroupBorderThickness 1

skinparam sequenceDivider {
    BorderColor 454645
    BorderThickness 1
    FontColor 454645
}

skinparam participant {
    BackgroundColor FF6F61
    BorderColor 454645
    FontColor White
    BorderThickness 1.5
}

skinparam database {
    BackgroundColor 98DDDE
    BorderColor 454645
    FontColor 454645
}

skinparam entity {
    BackgroundColor FFDA29
    BorderColor 454645
    FontColor 454645
}

skinparam note {
    BackgroundColor LightGreen
    BorderColor 454645
    FontColor 454645
    BorderThickness 1
}

skinparam actor {
    BackgroundColor 454645
    BorderColor 454645
    FontColor 454645
}

skinparam boundary {
    BackgroundColor FFDA29
    BorderColor 454645
    FontColor 454645
}

skinparam control {
    BackgroundColor FFDA29
    BorderColor 454645
    FontColor 454645
}

skinparam collections {
    BackgroundColor FF6F61
    BorderColor 454645
    FontColor 454645
    BorderThickness 1.5
}

skinparam queue {
    BackgroundColor FF6F61
    BorderColor 454645
    FontColor FFF
    BorderThickness 1.5
}
skinparam backgroundColor #ffffff

object main
object exti
object failures
object port_config
object synchronization
object system_configuration
object Tim5
object timer
object uart

main - -> failures
main - -> exti
main - -> port_config
main - -> synchronization
main - -> system_configuration
main - -> timer
main - -> uart
main - -> Tim5
@enduml

PlantUML version 1.2022.5(Sat Apr 30 12:55:52 CEST 2022)
(GPL source distribution)
Java Runtime: OpenJDK Runtime Environment
JVM: OpenJDK 64-Bit Server VM
Default Encoding: Cp1252
Language: fr
Country: FR
--></g></svg>